<svg width="18" height="20" viewBox="0 0 18 20" fill="none" xmlns="http://www.w3.org/2000/svg">
<path d="M1.91667 16.9271H3.25833L11.524 7.94271L10.1823 6.48438L1.91667 15.4688V16.9271ZM15.6208 6.43229L11.5479 2.05729L12.8896 0.598958C13.2569 0.199653 13.7083 0 14.2437 0C14.7791 0 15.2302 0.199653 15.5969 0.598958L16.9385 2.05729C17.3059 2.4566 17.4976 2.93854 17.5135 3.50312C17.5295 4.06771 17.3538 4.54931 16.9865 4.94792L15.6208 6.43229ZM14.2313 7.96875L4.07292 19.0104H0V14.5833L10.1583 3.54167L14.2313 7.96875ZM10.8531 7.21354L10.1823 6.48438L11.524 7.94271L10.8531 7.21354Z" fill="#3C377E"/>
</svg>
